<svg width="16" height="12" viewBox="0 0 16 12" fill="none" xmlns="http://www.w3.org/2000/svg">
<path d="M6.44444 5.47915C7.32778 5.05693 7.78889 4.41804 7.78889 3.4236C7.78889 1.46249 6.32778 0.984711 4.64167 0.984711H0V10.8292H4.77222C6.56111 10.8292 8.24167 9.97082 8.24167 7.97082C8.24167 6.73471 7.65556 5.82082 6.44444 5.47915V5.47915ZM2.16389 2.66527H4.19444C4.975 2.66527 5.67778 2.88471 5.67778 3.79027C5.67778 4.62638 5.13056 4.96249 4.35833 4.96249H2.16389V2.66527V2.66527ZM4.47778 9.15693H2.16389V6.44582H4.52222C5.475 6.44582 6.07778 6.84304 6.07778 7.85138C6.07778 8.84582 5.35833 9.15693 4.47778 9.15693V9.15693ZM14.4361 2.47082H10.4444V1.50138H14.4361V2.47082V2.47082ZM16 7.36804C16 5.25971 14.7667 3.50138 12.5306 3.50138C10.3583 3.50138 8.88333 5.13471 8.88333 7.2736C8.88333 9.49304 10.2806 11.0153 12.5306 11.0153C14.2333 11.0153 15.3361 10.2486 15.8667 8.61804H14.1389C13.9528 9.22638 13.1861 9.5486 12.5917 9.5486C11.4444 9.5486 10.8417 8.87638 10.8417 7.73471H15.9833C15.9917 7.61804 16 7.49304 16 7.36804ZM10.8444 6.50138C10.9083 5.56527 11.5306 4.97915 12.4694 4.97915C13.4528 4.97915 13.9472 5.55693 14.0306 6.50138H10.8444Z" fill="#EDEDF5"/>
</svg>
