<svg width="16" height="14" viewBox="0 0 16 14" fill="none" xmlns="http://www.w3.org/2000/svg">
<path d="M1.89539 3.24229C1.91524 3.04713 1.83916 2.85196 1.69361 2.71965L0.201778 0.920187V0.652252H4.83936L8.42506 8.51498L11.5774 0.652252H16V0.920187L14.7232 2.14409C14.614 2.22678 14.5578 2.36571 14.5809 2.50133V11.4986C14.5578 11.6343 14.614 11.7732 14.7232 11.8559L15.9702 13.0798V13.3477H9.69526V13.0798L10.9886 11.8261C11.1143 11.7004 11.1143 11.6607 11.1143 11.4689V4.19825L7.51871 13.3246H7.03246L2.85135 4.19825V10.3144C2.81497 10.5725 2.90097 10.8305 3.0829 11.0157L4.76328 13.0533V13.3213H0V13.0566L1.68038 11.0157C1.859 10.8305 1.9417 10.5691 1.89539 10.3144V3.24229Z" fill="#EDEDF5"/>
</svg>
