<svg width="18" height="24" viewBox="0 0 18 24" fill="none" xmlns="http://www.w3.org/2000/svg">
<path d="M9 4.8C8.68174 4.8 8.37652 4.92643 8.15147 5.15147C7.92643 5.37652 7.8 5.68174 7.8 6V8.4C7.8 8.71826 7.92643 9.02348 8.15147 9.24853C8.37652 9.47357 8.68174 9.6 9 9.6C9.31826 9.6 9.62348 9.47357 9.84853 9.24853C10.0736 9.02348 10.2 8.71826 10.2 8.4V6C10.2 5.68174 10.0736 5.37652 9.84853 5.15147C9.62348 4.92643 9.31826 4.8 9 4.8ZM9 0C6.77218 0 4.63561 0.884997 3.0603 2.4603C1.485 4.03561 0.6 6.17218 0.6 8.4V15.6C0.6 17.8278 1.485 19.9644 3.0603 21.5397C4.63561 23.115 6.77218 24 9 24C11.2278 24 13.3644 23.115 14.9397 21.5397C16.515 19.9644 17.4 17.8278 17.4 15.6V8.4C17.4 6.17218 16.515 4.03561 14.9397 2.4603C13.3644 0.884997 11.2278 0 9 0ZM15 15.6C15 17.1913 14.3679 18.7174 13.2426 19.8426C12.1174 20.9679 10.5913 21.6 9 21.6C7.4087 21.6 5.88258 20.9679 4.75736 19.8426C3.63214 18.7174 3 17.1913 3 15.6V8.4C3 6.8087 3.63214 5.28258 4.75736 4.15736C5.88258 3.03214 7.4087 2.4 9 2.4C10.5913 2.4 12.1174 3.03214 13.2426 4.15736C14.3679 5.28258 15 6.8087 15 8.4V15.6Z" fill="#EDEDF5"/>
</svg>
