<svg width="16" height="16" viewBox="0 0 16 16" fill="none" xmlns="http://www.w3.org/2000/svg">
<path d="M12.8192 11.3092C12.2088 11.3092 11.6626 11.5502 11.245 11.9277L5.51804 8.59438C5.55821 8.40964 5.59033 8.2249 5.59033 8.03213C5.59033 7.83936 5.55821 7.65462 5.51804 7.46988L11.1807 4.16867C11.6144 4.57028 12.1847 4.81928 12.8192 4.81928C14.1526 4.81928 15.2289 3.74297 15.2289 2.40964C15.2289 1.07631 14.1526 0 12.8192 0C11.4859 0 10.4096 1.07631 10.4096 2.40964C10.4096 2.60241 10.4417 2.78715 10.4819 2.97189L4.81925 6.27309C4.38551 5.87149 3.81523 5.62249 3.1807 5.62249C1.84736 5.62249 0.771057 6.69879 0.771057 8.03213C0.771057 9.36546 1.84736 10.4418 3.1807 10.4418C3.81523 10.4418 4.38551 10.1928 4.81925 9.79116L10.5381 13.1325C10.498 13.3012 10.4739 13.4779 10.4739 13.6546C10.4739 14.9478 11.5261 16 12.8192 16C14.1124 16 15.1646 14.9478 15.1646 13.6546C15.1646 12.3614 14.1124 11.3092 12.8192 11.3092Z" fill="#EDEDF5"/>
</svg>
